<svg width="2000" height="1731" viewBox="0 0 2000 1731" fill="none" xmlns="http://www.w3.org/2000/svg">
<path d="M871.665 198.073V137.676L826.449 133.783C823.746 124.236 820.019 115.139 815.268 106.658L844.47 71.9519L801.794 29.2561L767.104 58.4712C758.626 53.7181 749.534 49.9894 739.991 47.285L736.101 2.04877H675.732L671.841 47.285C662.298 49.9894 653.206 53.7181 644.728 58.4712L610.038 29.2561L567.362 71.9519L596.564 106.658C591.813 115.139 588.086 124.236 585.383 133.783L540.167 137.676V198.073L585.383 201.965C588.086 211.512 591.813 220.609 596.564 229.091L567.362 263.796L610.038 306.492L644.728 277.277C653.206 282.03 662.298 285.759 671.841 288.463L675.732 333.699H736.101L739.991 288.463C749.534 285.759 758.626 282.03 767.104 277.277L801.794 306.492L844.47 263.796L815.268 229.091C820.019 220.609 823.746 211.512 826.449 201.965L871.665 198.073ZM705.916 238.023C667.172 238.023 635.8 206.595 635.8 167.833C635.8 129.071 667.213 97.6841 705.916 97.6841C744.619 97.6841 776.033 129.112 776.033 167.833C776.033 206.554 744.619 238.023 705.916 238.023Z" stroke="#1D1B6E" stroke-linecap="round" stroke-linejoin="round"/>
<path d="M1059.9 1397.69V1366.84L1036.8 1364.83C1035.41 1359.96 1033.52 1355.33 1031.11 1350.98L1046.01 1333.24L1024.23 1311.44L1006.49 1326.36C1002.15 1323.94 997.522 1322.01 992.648 1320.66L990.642 1297.55H959.802L957.795 1320.66C952.921 1322.05 948.293 1323.94 943.952 1326.36L926.218 1311.44L904.429 1333.24L919.337 1350.98C916.921 1355.33 914.996 1359.96 913.645 1364.83L890.545 1366.84V1397.69L913.645 1399.7C915.037 1404.58 916.921 1409.21 919.337 1413.55L904.429 1431.29L926.218 1453.09L943.952 1438.18C948.293 1440.59 952.921 1442.52 957.795 1443.87L959.802 1466.98H990.642L992.648 1443.87C997.522 1442.48 1002.15 1440.59 1006.49 1438.18L1024.23 1453.09L1046.01 1431.29L1031.11 1413.55C1033.52 1409.21 1035.45 1404.58 1036.8 1399.7L1059.9 1397.69ZM975.242 1418.14C955.46 1418.14 939.406 1402.08 939.406 1382.29C939.406 1362.5 955.46 1346.43 975.242 1346.43C995.024 1346.43 1011.08 1362.5 1011.08 1382.29C1011.08 1402.08 995.024 1418.14 975.242 1418.14Z" stroke="#1D1B6E" stroke-linecap="round" stroke-linejoin="round"/>
<path d="M937.563 1643.54L946.122 1597.24L912.006 1587.86C911.31 1580.15 909.713 1572.66 907.296 1565.49L934.573 1543.03L907.911 1504.23L877.194 1521.68C871.378 1516.85 864.948 1512.67 858.026 1509.27L861.467 1474.03L815.186 1465.47L805.807 1499.6C798.108 1500.3 790.613 1501.89 783.446 1504.31L761.002 1477.02L722.216 1503.7L739.664 1534.43C734.831 1540.25 730.653 1546.68 727.254 1553.6L692.032 1550.16L683.472 1596.46L717.588 1605.85C718.285 1613.55 719.882 1621.05 722.298 1628.22L695.022 1650.67L721.684 1689.48L752.401 1672.02C758.217 1676.86 764.647 1681.04 771.568 1684.44L768.128 1719.67L814.408 1728.24L823.787 1694.11C831.487 1693.41 838.982 1691.81 846.149 1689.39L868.593 1716.68L907.378 1690.01L889.931 1659.28C894.764 1653.46 898.941 1647.03 902.341 1640.1L937.563 1643.54ZM804.865 1650.67C775.172 1645.18 755.555 1616.62 761.043 1586.92C766.531 1557.21 795.077 1537.58 824.77 1543.07C854.463 1548.56 874.081 1577.12 868.593 1606.83C863.105 1636.54 834.559 1656.16 804.865 1650.67Z" fill="#E4CBE5" stroke="#1D1B6E" stroke-linecap="round" stroke-linejoin="round"/>
<path d="M1661.05 343.001C1662.44 336.895 1663.22 330.585 1663.22 324.07C1663.22 277.605 1625.58 239.949 1579.14 239.949C1571.56 239.949 1564.19 240.973 1557.18 242.858C1543.34 218.355 1517.05 201.76 1486.9 201.76C1444.06 201.76 1409.01 235.196 1406.39 277.4C1402.41 276.662 1398.36 276.212 1394.18 276.212C1360.27 276.212 1332.38 301.821 1328.69 334.724C1308.79 335.174 1292.77 351.4 1292.77 371.437C1292.77 391.474 1309.2 408.192 1329.51 408.192H1637.87C1658.14 408.192 1674.61 391.761 1674.61 371.437C1674.61 359.964 1669.32 349.721 1661.09 342.96L1661.05 343.001Z" stroke="#1D1B6E" stroke-linecap="round" stroke-linejoin="round"/>
<path d="M1491.53 380.042V465.024" stroke="#1D1B6E" stroke-linecap="round" stroke-linejoin="round"/>
<path d="M1491.53 329.028V363.037" stroke="#1D1B6E" stroke-linecap="round" stroke-linejoin="round"/>
<path d="M1491.53 297.232V315.425" stroke="#1D1B6E" stroke-linecap="round" stroke-linejoin="round"/>
<path d="M1475.48 455.108L1491.53 474.981L1507.55 455.108" stroke="#1D1B6E" stroke-linecap="round" stroke-linejoin="round"/>
<path d="M584.236 1446.74C585.629 1440.64 586.407 1434.33 586.407 1427.81C586.407 1381.34 548.768 1343.69 502.324 1343.69C494.747 1343.69 487.375 1344.71 480.372 1346.6C466.529 1322.1 440.235 1305.5 410.091 1305.5C367.252 1305.5 332.193 1338.94 329.572 1381.14C325.599 1380.4 321.545 1379.95 317.367 1379.95C283.456 1379.95 255.565 1405.56 251.879 1438.46C231.974 1438.91 215.96 1455.14 215.96 1475.18C215.96 1495.21 232.384 1511.93 252.698 1511.93H561.055C581.328 1511.93 597.792 1495.5 597.792 1475.18C597.792 1463.7 592.509 1453.46 584.277 1446.7L584.236 1446.74Z" stroke="#1D1B6E" stroke-linecap="round" stroke-linejoin="round"/>
<path d="M414.679 1495.91V1410.93" stroke="#1D1B6E" stroke-linecap="round" stroke-linejoin="round"/>
<path d="M414.679 1546.92V1512.92" stroke="#1D1B6E" stroke-linecap="round" stroke-linejoin="round"/>
<path d="M414.679 1578.72V1560.53" stroke="#1D1B6E" stroke-linecap="round" stroke-linejoin="round"/>
<path d="M430.733 1420.84L414.679 1400.97L398.665 1420.84" stroke="#1D1B6E" stroke-linecap="round" stroke-linejoin="round"/>
<path d="M1381.07 112.927H1204.51C1200.21 112.927 1196.73 116.41 1196.73 120.712V202.908C1196.73 207.21 1200.21 210.693 1204.51 210.693H1283.76L1292.81 243.104L1301.87 210.693H1381.12C1385.42 210.693 1388.9 207.21 1388.9 202.908V120.712C1388.9 116.41 1385.42 112.927 1381.12 112.927H1381.07Z" fill="#656EB2" stroke="#263238" stroke-linecap="round" stroke-linejoin="round"/>
<path d="M1226.1 136.446H1359.49" stroke="#F7F0E6" stroke-linecap="round" stroke-linejoin="round"/>
<path d="M1226.1 153.369H1359.49" stroke="#F7F0E6" stroke-linecap="round" stroke-linejoin="round"/>
<path d="M1226.1 170.292H1359.49" stroke="#F7F0E6" stroke-linecap="round" stroke-linejoin="round"/>
<path d="M1226.1 187.173H1326.64" stroke="#F7F0E6" stroke-linecap="round" stroke-linejoin="round"/>
<path d="M50.6215 405.078H960.867C969.304 405.078 976.102 411.92 976.102 420.32V462.688H35.345V420.32C35.345 411.879 42.1846 405.078 50.5806 405.078H50.6215Z" fill="#656EB2" stroke="#263238" stroke-linecap="round" stroke-linejoin="round"/>
<path d="M976.102 470.924H35.345V1133.24H976.102V470.924Z" fill="#F7F0E6" stroke="#263238" stroke-linecap="round" stroke-linejoin="round"/>
<path d="M954.191 431.424C954.191 439.374 947.761 445.848 939.774 445.848C931.788 445.848 925.358 439.414 925.358 431.424C925.358 423.434 931.788 417.001 939.774 417.001C947.761 417.001 954.191 423.434 954.191 431.424Z" fill="#F7F0E6" stroke="#263238" stroke-linecap="round" stroke-linejoin="round"/>
<path d="M903.487 431.424C903.487 439.374 897.057 445.848 889.071 445.848C881.084 445.848 874.654 439.414 874.654 431.424C874.654 423.434 881.084 417.001 889.071 417.001C897.057 417.001 903.487 423.434 903.487 431.424Z" fill="#F7F0E6" stroke="#263238" stroke-linecap="round" stroke-linejoin="round"/>
<path d="M852.784 431.424C852.784 439.374 846.354 445.848 838.367 445.848C830.381 445.848 823.951 439.414 823.951 431.424C823.951 423.434 830.381 417.001 838.367 417.001C846.354 417.001 852.784 423.434 852.784 431.424Z" fill="#F7F0E6" stroke="#263238" stroke-linecap="round" stroke-linejoin="round"/>
<path d="M947.597 499.361H910.368" stroke="#1D1B6E" stroke-width="2" stroke-linecap="round" stroke-linejoin="round"/>
<path d="M947.597 514.439H910.368" stroke="#1D1B6E" stroke-width="2" stroke-linecap="round" stroke-linejoin="round"/>
<path d="M947.597 529.559H910.368" stroke="#1D1B6E" stroke-width="2" stroke-linecap="round" stroke-linejoin="round"/>
<path d="M100.506 890.138H382.446" stroke="#1D1B6E" stroke-width="2" stroke-linecap="round" stroke-linejoin="round"/>
<path d="M100.506 912.387H382.446" stroke="#1D1B6E" stroke-width="2" stroke-linecap="round" stroke-linejoin="round"/>
<path d="M100.506 935.047H322.774" stroke="#1D1B6E" stroke-width="2" stroke-linecap="round" stroke-linejoin="round"/>
<path d="M698.339 478.423V480.471" stroke="#1D1B6E" stroke-linecap="round" stroke-linejoin="round"/>
<path d="M698.339 492.846V1114.02" stroke="#1D1B6E" stroke-linecap="round" stroke-linejoin="round"/>
<path d="M698.339 1120.21V1122.26" stroke="#1D1B6E" stroke-linecap="round" stroke-linejoin="round"/>
<path d="M46.6897 984.708H48.7375" stroke="#1D1B6E" stroke-linecap="round" stroke-linejoin="round"/>
<path d="M60.9834 984.708H953.536" stroke="#1D1B6E" stroke-linecap="round" stroke-linejoin="round"/>
<path d="M959.638 984.708H961.686" stroke="#1D1B6E" stroke-linecap="round" stroke-linejoin="round"/>
<path d="M704.482 978.521H692.155V990.854H704.482V978.521Z" fill="#F7F0E6" stroke="#263238" stroke-linecap="round" stroke-linejoin="round"/>
<path d="M344.152 1089.4H152.028V1209.87H344.152V1089.4Z" fill="#ACC0DA" stroke="#1D1B6E" stroke-linecap="round" stroke-linejoin="round"/>
<path d="M344.152 1089.4H152.028V1107.71H344.152V1089.4Z" fill="#656EB2" stroke="#263238" stroke-linecap="round" stroke-linejoin="round"/>
<path d="M171.646 1123.12H220.752" stroke="#656EB2" stroke-width="2" stroke-linecap="round" stroke-linejoin="round"/>
<path d="M196.22 1136.85H281.203" stroke="#656EB2" stroke-width="2" stroke-linecap="round" stroke-linejoin="round"/>
<path d="M185.325 1149.63H210.39" stroke="#656EB2" stroke-width="2" stroke-linecap="round" stroke-linejoin="round"/>
<path d="M196.22 1164.71H253.435" stroke="#656EB2" stroke-width="2" stroke-linecap="round" stroke-linejoin="round"/>
<path d="M171.646 1178.4H220.752" stroke="#656EB2" stroke-width="2" stroke-linecap="round" stroke-linejoin="round"/>
<path d="M649.028 865.963H484.099" stroke="#1D1B6E" stroke-linecap="round" stroke-linejoin="round"/>
<path d="M652.223 942.299C652.223 942.299 652.223 865.635 566.584 865.635C480.945 865.635 480.945 942.299 480.945 942.299" stroke="#1D1B6E" stroke-linecap="round" stroke-linejoin="round"/>
<path d="M652.223 949.511C656.204 949.511 659.431 946.282 659.431 942.299C659.431 938.316 656.204 935.088 652.223 935.088C648.242 935.088 645.015 938.316 645.015 942.299C645.015 946.282 648.242 949.511 652.223 949.511Z" fill="#656EB2" stroke="#263238" stroke-linecap="round" stroke-linejoin="round"/>
<path d="M473.696 942.299C473.696 938.325 476.932 935.088 480.904 935.088C484.877 935.088 488.113 938.325 488.113 942.299C488.113 946.274 484.877 949.511 480.904 949.511C476.932 949.511 473.696 946.274 473.696 942.299Z" fill="#656EB2" stroke="#263238" stroke-linecap="round" stroke-linejoin="round"/>
<path d="M645.834 871.986H658.53V859.284H645.834V871.986Z" fill="#656EB2" stroke="#263238" stroke-linecap="round" stroke-linejoin="round"/>
<path d="M560.236 871.986H572.932V859.284H560.236V871.986Z" fill="#656EB2" stroke="#263238" stroke-linecap="round" stroke-linejoin="round"/>
<path d="M474.556 871.986H487.252V859.284H474.556V871.986Z" fill="#656EB2" stroke="#263238" stroke-linecap="round" stroke-linejoin="round"/>
<path d="M203.018 635.356V610.034L184.056 608.395C182.909 604.379 181.353 600.569 179.346 597.004L191.592 582.458L173.694 564.552L159.155 576.803C155.591 574.796 151.783 573.238 147.769 572.091L146.131 553.12H120.82L119.182 572.091C115.168 573.238 111.359 574.796 107.796 576.803L93.2566 564.552L75.3588 582.458L87.6046 597.004C85.5978 600.569 84.0415 604.379 82.8947 608.395L63.9321 610.034V635.356L82.8947 636.995C84.0415 641.011 85.5978 644.822 87.6046 648.386L75.3588 662.932L93.2566 680.839L107.796 668.587C111.359 670.595 115.168 672.152 119.182 673.299L120.82 692.27H146.131L147.769 673.299C151.783 672.152 155.591 670.595 159.155 668.587L173.694 680.839L191.592 662.932L179.346 648.386C181.353 644.822 182.909 641.011 184.056 636.995L203.018 635.356ZM133.475 652.156C117.216 652.156 104.028 638.962 104.028 622.695C104.028 606.428 117.216 593.234 133.475 593.234C149.735 593.234 162.923 606.428 162.923 622.695C162.923 638.962 149.735 652.156 133.475 652.156Z" fill="#ACC0DA" stroke="#263238" stroke-linecap="round" stroke-linejoin="round"/>
<path d="M289.067 692.188V674.856L276.084 673.75C275.306 671.004 274.241 668.382 272.889 665.965L281.285 656.008L269.039 643.756L259.087 652.156C256.671 650.804 254.049 649.698 251.305 648.96L250.2 635.971H232.875L231.769 648.96C229.025 649.738 226.404 650.804 223.988 652.156L214.035 643.756L201.79 656.008L210.186 665.965C208.834 668.382 207.728 671.004 206.991 673.75L194.008 674.856V692.188L206.991 693.295C207.769 696.04 208.834 698.663 210.186 701.08L201.79 711.037L214.035 723.288L223.988 714.889C226.404 716.241 229.025 717.347 231.769 718.085L232.875 731.074H250.2L251.305 718.085C254.049 717.306 256.671 716.241 259.087 714.889L269.039 723.288L281.285 711.037L272.889 701.08C274.241 698.663 275.347 696.04 276.084 693.295L289.067 692.188ZM241.476 703.661C230.336 703.661 221.326 694.647 221.326 683.502C221.326 672.357 230.336 663.342 241.476 663.342C252.616 663.342 261.626 672.357 261.626 683.502C261.626 694.647 252.616 703.661 241.476 703.661Z" fill="#656EB2" stroke="#263238" stroke-linecap="round" stroke-linejoin="round"/>
<path d="M733.725 1026.83H872.402" stroke="#1D1B6E" stroke-width="2" stroke-linecap="round" stroke-linejoin="round"/>
<path d="M733.725 1049.08H872.402" stroke="#1D1B6E" stroke-width="2" stroke-linecap="round" stroke-linejoin="round"/>
<path d="M733.725 1071.74H812.77" stroke="#1D1B6E" stroke-width="2" stroke-linecap="round" stroke-linejoin="round"/>
<path d="M497.86 1080.96H424.836C414.924 1080.96 406.856 1072.93 406.856 1062.97C406.856 1053.05 414.883 1044.98 424.836 1044.98H497.86C507.771 1044.98 515.84 1053.01 515.84 1062.97C515.84 1072.89 507.812 1080.96 497.86 1080.96Z" fill="#ACC0DA" stroke="#263238" stroke-linecap="round" stroke-linejoin="round"/>
<path d="M633.916 1080.96H560.891C550.98 1080.96 542.912 1072.93 542.912 1062.97C542.912 1053.05 550.939 1044.98 560.891 1044.98H633.916C643.827 1044.98 651.895 1053.01 651.895 1062.97C651.895 1072.89 643.868 1080.96 633.916 1080.96Z" fill="#ACC0DA" stroke="#263238" stroke-linecap="round" stroke-linejoin="round"/>
<path d="M898.737 696.614H743.882V851.54H898.737V696.614Z" fill="#F7F0E6" stroke="#263238" stroke-linecap="round" stroke-linejoin="round"/>
<path d="M743.882 696.614L898.696 851.54" stroke="#263238" stroke-linecap="round" stroke-linejoin="round"/>
<path d="M898.696 696.614L743.882 851.54" stroke="#263238" stroke-linecap="round" stroke-linejoin="round"/>
<path d="M1066.82 604.625H874.695V725.091H1066.82V604.625Z" fill="#1D1B6E" stroke="#1D1B6E" stroke-linecap="round" stroke-linejoin="round"/>
<path d="M1066.82 604.625H874.695V622.941H1066.82V604.625Z" fill="#656EB2" stroke="#263238" stroke-linecap="round" stroke-linejoin="round"/>
<path d="M894.313 638.388H943.42" stroke="#F7F0E6" stroke-linecap="round" stroke-linejoin="round"/>
<path d="M918.846 652.074H1003.87" stroke="#F7F0E6" stroke-linecap="round" stroke-linejoin="round"/>
<path d="M907.993 664.858H933.017" stroke="#F7F0E6" stroke-linecap="round" stroke-linejoin="round"/>
<path d="M918.846 679.937H976.102" stroke="#F7F0E6" stroke-linecap="round" stroke-linejoin="round"/>
<path d="M894.313 693.623H943.42" stroke="#F7F0E6" stroke-linecap="round" stroke-linejoin="round"/>
<path d="M804.579 520.791V556.93L788.647 572.87H752.524V520.791H804.579Z" fill="#F7F0E6" stroke="#263238" stroke-linecap="round" stroke-linejoin="round"/>
<path d="M804.579 556.93L788.647 572.87V556.93H804.579Z" fill="#F7F0E6" stroke="#263238" stroke-linecap="round" stroke-linejoin="round"/>
<path d="M250.855 800.362V836.502L234.923 852.441H198.8V800.362H250.855Z" fill="#F7F0E6" stroke="#263238" stroke-linecap="round" stroke-linejoin="round"/>
<path d="M250.855 836.502L234.923 852.441V836.502H250.855Z" fill="#F7F0E6" stroke="#263238" stroke-linecap="round" stroke-linejoin="round"/>
<path d="M54.1028 1023.06V1059.2L38.171 1075.14H2.04785V1023.06H54.1028Z" fill="#F7F0E6" stroke="#263238" stroke-linecap="round" stroke-linejoin="round"/>
<path d="M54.1027 1059.2L38.1709 1075.14V1059.2H54.1027Z" fill="#F7F0E6" stroke="#263238" stroke-linecap="round" stroke-linejoin="round"/>
<path d="M322.773 517.513V515.464H324.821" stroke="#1D1B6E" stroke-linecap="round" stroke-linejoin="round"/>
<path d="M336.903 515.464H636.987" stroke="#1D1B6E" stroke-linecap="round" stroke-linejoin="round"/>
<path d="M643.008 515.464H645.056V517.513" stroke="#1D1B6E" stroke-linecap="round" stroke-linejoin="round"/>
<path d="M645.056 529.887V722.141" stroke="#1D1B6E" stroke-linecap="round" stroke-linejoin="round"/>
<path d="M645.056 728.369V730.418H643.008" stroke="#1D1B6E" stroke-linecap="round" stroke-linejoin="round"/>
<path d="M630.926 730.418H330.883" stroke="#1D1B6E" stroke-linecap="round" stroke-linejoin="round"/>
<path d="M324.821 730.418H322.773V728.369" stroke="#1D1B6E" stroke-linecap="round" stroke-linejoin="round"/>
<path d="M322.773 715.954V523.7" stroke="#1D1B6E" stroke-linecap="round" stroke-linejoin="round"/>
<path d="M483.935 520.791C486.876 520.791 489.259 518.406 489.259 515.464C489.259 512.522 486.876 510.137 483.935 510.137C480.995 510.137 478.611 512.522 478.611 515.464C478.611 518.406 480.995 520.791 483.935 520.791Z" fill="#656EB2" stroke="#263238" stroke-linecap="round" stroke-linejoin="round"/>
<path d="M322.773 628.268C325.714 628.268 328.098 625.883 328.098 622.941C328.098 619.999 325.714 617.614 322.773 617.614C319.833 617.614 317.449 619.999 317.449 622.941C317.449 625.883 319.833 628.268 322.773 628.268Z" fill="#656EB2" stroke="#263238" stroke-linecap="round" stroke-linejoin="round"/>
<path d="M483.935 735.745C486.876 735.745 489.259 733.36 489.259 730.418C489.259 727.476 486.876 725.091 483.935 725.091C480.995 725.091 478.611 727.476 478.611 730.418C478.611 733.36 480.995 735.745 483.935 735.745Z" fill="#656EB2" stroke="#263238" stroke-linecap="round" stroke-linejoin="round"/>
<path d="M645.055 628.268C647.996 628.268 650.38 625.883 650.38 622.941C650.38 619.999 647.996 617.614 645.055 617.614C642.115 617.614 639.731 619.999 639.731 622.941C639.731 625.883 642.115 628.268 645.055 628.268Z" fill="#656EB2" stroke="#263238" stroke-linecap="round" stroke-linejoin="round"/>
<path d="M651.24 724.231H638.912V736.564H651.24V724.231Z" fill="#656EB2" stroke="#263238" stroke-linecap="round" stroke-linejoin="round"/>
<path d="M651.24 509.277H638.912V521.61H651.24V509.277Z" fill="#656EB2" stroke="#263238" stroke-linecap="round" stroke-linejoin="round"/>
<path d="M328.958 724.231H316.63V736.564H328.958V724.231Z" fill="#656EB2" stroke="#263238" stroke-linecap="round" stroke-linejoin="round"/>
<path d="M328.958 509.277H316.63V521.61H328.958V509.277Z" fill="#656EB2" stroke="#263238" stroke-linecap="round" stroke-linejoin="round"/>
<path d="M624.7 534.476H344.193V712.799H624.7V534.476Z" fill="#F7F0E6" stroke="#263238" stroke-linecap="round" stroke-linejoin="round"/>
<path d="M624.659 660.105L593.492 691.287L509.123 606.92L473.655 642.404L417.054 585.777L344.193 658.671V712.758H624.659V660.105Z" fill="#ACC0DA" stroke="#263238" stroke-linecap="round" stroke-linejoin="round"/>
<path d="M566.543 604.912C577.491 604.912 586.366 596.033 586.366 585.08C586.366 574.127 577.491 565.248 566.543 565.248C555.595 565.248 546.72 574.127 546.72 585.08C546.72 596.033 555.595 604.912 566.543 604.912Z" fill="#656EB2" stroke="#263238" stroke-linecap="round" stroke-linejoin="round"/>
<path d="M91.6184 92.3573V90.3086H93.6662" stroke="#1D1B6E" stroke-linecap="round" stroke-linejoin="round"/>
<path d="M106.281 90.3086H335.429" stroke="#1D1B6E" stroke-linecap="round" stroke-linejoin="round"/>
<path d="M341.736 90.3086H343.784V92.3573" stroke="#1D1B6E" stroke-linecap="round" stroke-linejoin="round"/>
<path d="M343.784 104.65V311.491" stroke="#1D1B6E" stroke-linecap="round" stroke-linejoin="round"/>
<path d="M343.784 317.637V319.686H341.736" stroke="#1D1B6E" stroke-linecap="round" stroke-linejoin="round"/>
<path d="M329.122 319.686H99.9734" stroke="#1D1B6E" stroke-linecap="round" stroke-linejoin="round"/>
<path d="M93.6662 319.686H91.6184V317.637" stroke="#1D1B6E" stroke-linecap="round" stroke-linejoin="round"/>
<path d="M91.6184 305.345V98.5036" stroke="#1D1B6E" stroke-linecap="round" stroke-linejoin="round"/>
<path d="M217.681 95.9631C219.965 95.9631 221.817 93.4315 221.817 90.3086C221.817 87.1857 219.965 84.6541 217.681 84.6541C215.396 84.6541 213.544 87.1857 213.544 90.3086C213.544 93.4315 215.396 95.9631 217.681 95.9631Z" fill="#656EB2" stroke="#263238" stroke-linecap="round" stroke-linejoin="round"/>
<path d="M91.6185 210.652C93.903 210.652 95.755 208.12 95.755 204.997C95.755 201.874 93.903 199.343 91.6185 199.343C89.3339 199.343 87.4819 201.874 87.4819 204.997C87.4819 208.12 89.3339 210.652 91.6185 210.652Z" fill="#656EB2" stroke="#263238" stroke-linecap="round" stroke-linejoin="round"/>
<path d="M217.681 325.34C219.965 325.34 221.817 322.809 221.817 319.686C221.817 316.563 219.965 314.031 217.681 314.031C215.396 314.031 213.544 316.563 213.544 319.686C213.544 322.809 215.396 325.34 217.681 325.34Z" fill="#656EB2" stroke="#263238" stroke-linecap="round" stroke-linejoin="round"/>
<path d="M343.784 210.652C346.069 210.652 347.921 208.12 347.921 204.997C347.921 201.874 346.069 199.343 343.784 199.343C341.499 199.343 339.647 201.874 339.647 204.997C339.647 208.12 341.499 210.652 343.784 210.652Z" fill="#656EB2" stroke="#263238" stroke-linecap="round" stroke-linejoin="round"/>
<path d="M348.617 313.089H338.951V326.242H348.617V313.089Z" fill="#656EB2" stroke="#263238" stroke-linecap="round" stroke-linejoin="round"/>
<path d="M348.617 83.7526H338.951V96.9056H348.617V83.7526Z" fill="#656EB2" stroke="#263238" stroke-linecap="round" stroke-linejoin="round"/>
<path d="M96.4512 313.089H86.7856V326.242H96.4512V313.089Z" fill="#656EB2" stroke="#263238" stroke-linecap="round" stroke-linejoin="round"/>
<path d="M96.4512 83.7526H86.7856V96.9056H96.4512V83.7526Z" fill="#656EB2" stroke="#263238" stroke-linecap="round" stroke-linejoin="round"/>
<path d="M284.029 159.474H72.1643V349.721H284.029V159.474Z" fill="#F7F0E6" stroke="#263238" stroke-linecap="round" stroke-linejoin="round"/>
<path d="M284.029 293.544L250.732 326.816L160.752 236.794L122.868 274.655L72.1643 213.479V292.028V349.721H284.029V293.544Z" fill="#ACC0DA" stroke="#263238" stroke-linecap="round" stroke-linejoin="round"/>
<path d="M222.022 234.622C233.693 234.622 243.155 225.156 243.155 213.479C243.155 201.802 233.693 192.336 222.022 192.336C210.35 192.336 200.889 201.802 200.889 213.479C200.889 225.156 210.35 234.622 222.022 234.622Z" fill="#656EB2" stroke="#263238" stroke-linecap="round" stroke-linejoin="round"/>
<path d="M1344.05 637.077C1344.05 585.9 1302.56 544.392 1251.41 544.392C1200.25 544.392 1158.77 585.9 1158.77 637.077C1158.77 672.602 1178.79 703.457 1208.12 718.986V769.385H1294.7V718.986C1324.02 703.416 1344.05 672.602 1344.05 637.077Z" fill="#F7F0E6" stroke="#1D1B6E" stroke-linecap="round" stroke-linejoin="round"/>
<path d="M1265.46 761.354V660.515C1265.46 651.05 1273.11 643.387 1282.58 643.387H1283.56C1293.02 643.387 1300.68 651.05 1300.68 660.515C1300.68 669.98 1293.02 677.642 1283.56 677.642H1219.22C1209.76 677.642 1202.1 669.98 1202.1 660.515C1202.1 651.05 1209.76 643.387 1219.22 643.387H1220.2C1229.66 643.387 1237.32 651.05 1237.32 660.515V761.354" stroke="#1D1B6E" stroke-linecap="round" stroke-linejoin="round"/>
<path d="M1303.18 766.066H1199.6V809.418L1221.22 814.908C1228.8 821.751 1238.79 833.06 1249.77 833.06H1253.01C1263.98 833.06 1273.97 821.71 1281.55 814.908L1303.18 809.418V766.066Z" fill="#ACC0DA" stroke="#263238" stroke-linecap="round" stroke-linejoin="round"/>
<path d="M1308.34 770.532H1194.44C1191.69 770.532 1189.48 768.32 1189.48 765.575C1189.48 762.829 1191.69 760.617 1194.44 760.617H1308.34C1311.08 760.617 1313.29 762.829 1313.29 765.575C1313.29 768.32 1311.08 770.532 1308.34 770.532Z" fill="#1D1B6E"/>
<path d="M1308.34 792.372H1194.44C1191.69 792.372 1189.48 790.159 1189.48 787.414C1189.48 784.669 1191.69 782.456 1194.44 782.456H1308.34C1311.08 782.456 1313.29 784.669 1313.29 787.414C1313.29 790.159 1311.08 792.372 1308.34 792.372Z" fill="#1D1B6E"/>
<path d="M1308.34 814.212H1194.44C1191.69 814.212 1189.48 811.999 1189.48 809.254C1189.48 806.508 1191.69 804.296 1194.44 804.296H1308.34C1311.08 804.296 1313.29 806.508 1313.29 809.254C1313.29 811.999 1311.08 814.212 1308.34 814.212Z" fill="#1D1B6E"/>
<path d="M1786.25 479.447L1807.51 498.418L1809.8 500.467L1786.25 479.529L1757.71 555.087L1829.54 518.004L1972.72 357.178L1996.4 329.93C2002.7 319.317 2000 304.525 1989.31 294.978C1989.06 294.773 1988.82 294.568 1988.57 294.363C1977.92 285.431 1963.39 284.611 1953.8 291.946L1929.56 318.662H1929.52L1786.33 479.447H1786.25Z" fill="#ACC0DA"/>
<path d="M1787.85 477.685L1758.73 551.85L1829.13 514.358L1787.85 477.685Z" fill="#F7F0E6"/>
<path d="M1787.07 477.07L1758.65 551.809L1829.71 514.972L1787.07 477.07Z" stroke="#1D1B6E" stroke-linecap="round" stroke-linejoin="round"/>
<path d="M1758.73 551.85L1783.14 538.902L1768.89 526.158L1758.73 551.85Z" fill="#2D3D51"/>
<path d="M1808.12 495.714L1829.05 514.358L1971 354.965L1949.79 336.035L1929.8 318.211L1787.85 477.644L1808.12 495.714Z" stroke="#1D1B6E" stroke-miterlimit="10"/>
<path d="M1929.64 318.457L1949.58 336.24L1970.8 355.17L1994.43 328.004C2000.78 317.555 1998.4 303.173 1988.2 294.077C1987.96 293.872 1987.71 293.708 1987.51 293.503C1977.35 284.98 1963.26 284.488 1953.84 291.823L1929.64 318.498V318.457Z" stroke="#1D1B6E" stroke-miterlimit="10"/>
<path d="M1949.79 336.035L1808.12 495.714" stroke="#1D1B6E" stroke-miterlimit="10"/>
<path d="M1429.16 1093.58H1427.4V1075.18C1427.4 1070.84 1424 1067.35 1419.82 1067.35C1415.64 1067.35 1412.24 1070.88 1412.24 1075.18V1093.58H1410.48L1324.64 1259.36L1329.67 1263.87C1346.71 1279.11 1358.47 1299.35 1363.71 1321.56H1344.91C1340.73 1321.56 1337.33 1325.09 1337.33 1329.39C1337.33 1333.69 1340.73 1337.21 1344.91 1337.21H1366.25C1366.58 1340.7 1366.74 1344.18 1366.74 1347.7V1370.86H1381.89V1347.7C1381.89 1344.18 1381.73 1340.7 1381.44 1337.21H1406.43V1370.81H1473.35V1338.03C1473.35 1337.75 1473.35 1337.46 1473.43 1337.21H1494.77C1498.95 1337.21 1502.34 1333.69 1502.34 1329.39C1502.34 1325.09 1498.95 1321.56 1494.77 1321.56H1475.97C1481.17 1299.35 1492.92 1279.11 1510 1263.87L1515.04 1259.36L1429.2 1093.58H1429.16ZM1460.32 1321.56H1379.19C1374.07 1296.57 1361.78 1273.62 1343.6 1255.84L1412.16 1123.37V1253.09C1408.68 1255.59 1406.34 1259.73 1406.34 1264.44C1406.34 1272.06 1412.32 1278.25 1419.74 1278.25C1427.15 1278.25 1433.13 1272.06 1433.13 1264.44C1433.13 1259.73 1430.84 1255.55 1427.31 1253.09V1123.37L1495.87 1255.84C1477.69 1273.62 1465.36 1296.61 1460.28 1321.56H1460.32Z" fill="#F7F0E6" stroke="#263238" stroke-miterlimit="10"/>
<path d="M1646.06 1067.89H1193.5" stroke="#1D1B6E" stroke-linecap="round" stroke-linejoin="round"/>
<path d="M1654.78 1283.95C1654.78 1283.95 1654.78 1066.82 1419.78 1066.82C1184.77 1066.82 1184.77 1283.95 1184.77 1283.95" stroke="#1D1B6E" stroke-linecap="round" stroke-linejoin="round"/>
<path d="M1654.78 1304.39C1665.71 1304.39 1674.56 1295.24 1674.56 1283.95C1674.56 1272.66 1665.71 1263.5 1654.78 1263.5C1643.86 1263.5 1635 1272.66 1635 1283.95C1635 1295.24 1643.86 1304.39 1654.78 1304.39Z" fill="#656EB2" stroke="#263238" stroke-linecap="round" stroke-linejoin="round"/>
<path d="M1164.99 1283.95C1164.99 1272.64 1173.84 1263.5 1184.77 1263.5C1195.71 1263.5 1204.55 1272.64 1204.55 1283.95C1204.55 1295.26 1195.71 1304.39 1184.77 1304.39C1173.84 1304.39 1164.99 1295.26 1164.99 1283.95Z" fill="#656EB2" stroke="#263238" stroke-linecap="round" stroke-linejoin="round"/>
<path d="M1637.38 1084.81H1672.19V1048.87H1637.38V1084.81Z" fill="#656EB2" stroke="#263238" stroke-linecap="round" stroke-linejoin="round"/>
<path d="M1402.37 1084.81H1437.18V1048.87H1402.37V1084.81Z" fill="#656EB2" stroke="#263238" stroke-linecap="round" stroke-linejoin="round"/>
<path d="M1167.37 1084.81H1202.18V1048.87H1167.37V1084.81Z" fill="#656EB2" stroke="#263238" stroke-linecap="round" stroke-linejoin="round"/>
<path d="M1760.16 652.566H1472V940.865H1760.16V652.566Z" fill="#E4CBE5"/>
<path d="M1619.27 818.678C1619.27 821.792 1616.73 824.332 1613.62 824.332C1610.51 824.332 1607.97 821.792 1607.97 818.678C1607.97 815.564 1610.51 813.023 1613.62 813.023C1616.73 813.023 1619.27 815.564 1619.27 818.678Z" fill="#656EB2"/>
<path d="M1668.13 818.678C1668.13 821.792 1665.6 824.332 1662.48 824.332C1659.37 824.332 1656.83 821.792 1656.83 818.678C1656.83 815.564 1659.37 813.023 1662.48 813.023C1665.6 813.023 1668.13 815.564 1668.13 818.678Z" fill="#656EB2"/>
<path d="M1717.04 818.678C1717.04 821.792 1714.5 824.332 1711.38 824.332C1708.27 824.332 1705.73 821.792 1705.73 818.678C1705.73 815.564 1708.27 813.023 1711.38 813.023C1714.5 813.023 1717.04 815.564 1717.04 818.678Z" fill="#656EB2"/>
<path d="M1765.9 818.678C1765.9 821.792 1763.36 824.332 1760.24 824.332C1757.13 824.332 1754.59 821.792 1754.59 818.678C1754.59 815.564 1757.13 813.023 1760.24 813.023C1763.36 813.023 1765.9 815.564 1765.9 818.678Z" fill="#656EB2"/>
<path d="M1814.76 818.678C1814.76 821.792 1812.22 824.332 1809.1 824.332C1805.99 824.332 1803.45 821.792 1803.45 818.678C1803.45 815.564 1805.99 813.023 1809.1 813.023C1812.22 813.023 1814.76 815.564 1814.76 818.678Z" fill="#656EB2"/>
<path d="M1863.66 818.678C1863.66 821.792 1861.12 824.332 1858.01 824.332C1854.89 824.332 1852.35 821.792 1852.35 818.678C1852.35 815.564 1854.89 813.023 1858.01 813.023C1861.12 813.023 1863.66 815.564 1863.66 818.678Z" fill="#656EB2"/>
<path d="M1912.52 818.678C1912.52 821.792 1909.98 824.332 1906.87 824.332C1903.75 824.332 1901.21 821.792 1901.21 818.678C1901.21 815.564 1903.75 813.023 1906.87 813.023C1909.98 813.023 1912.52 815.564 1912.52 818.678Z" fill="#656EB2"/>
<path d="M1619.27 868.012C1619.27 871.126 1616.73 873.666 1613.62 873.666C1610.51 873.666 1607.97 871.126 1607.97 868.012C1607.97 864.898 1610.51 862.357 1613.62 862.357C1616.73 862.357 1619.27 864.898 1619.27 868.012Z" fill="#656EB2"/>
<path d="M1668.13 868.012C1668.13 871.126 1665.6 873.666 1662.48 873.666C1659.37 873.666 1656.83 871.126 1656.83 868.012C1656.83 864.898 1659.37 862.357 1662.48 862.357C1665.6 862.357 1668.13 864.898 1668.13 868.012Z" fill="#656EB2"/>
<path d="M1717.04 868.012C1717.04 871.126 1714.5 873.666 1711.38 873.666C1708.27 873.666 1705.73 871.126 1705.73 868.012C1705.73 864.898 1708.27 862.357 1711.38 862.357C1714.5 862.357 1717.04 864.898 1717.04 868.012Z" fill="#656EB2"/>
<path d="M1765.9 868.012C1765.9 871.126 1763.36 873.666 1760.24 873.666C1757.13 873.666 1754.59 871.126 1754.59 868.012C1754.59 864.898 1757.13 862.357 1760.24 862.357C1763.36 862.357 1765.9 864.898 1765.9 868.012Z" fill="#656EB2"/>
<path d="M1814.76 868.012C1814.76 871.126 1812.22 873.666 1809.1 873.666C1805.99 873.666 1803.45 871.126 1803.45 868.012C1803.45 864.898 1805.99 862.357 1809.1 862.357C1812.22 862.357 1814.76 864.898 1814.76 868.012Z" fill="#656EB2"/>
<path d="M1863.66 868.012C1863.66 871.126 1861.12 873.666 1858.01 873.666C1854.89 873.666 1852.35 871.126 1852.35 868.012C1852.35 864.898 1854.89 862.357 1858.01 862.357C1861.12 862.357 1863.66 864.898 1863.66 868.012Z" fill="#656EB2"/>
<path d="M1912.52 868.012C1912.52 871.126 1909.98 873.666 1906.87 873.666C1903.75 873.666 1901.21 871.126 1901.21 868.012C1901.21 864.898 1903.75 862.357 1906.87 862.357C1909.98 862.357 1912.52 864.898 1912.52 868.012Z" fill="#656EB2"/>
<path d="M1619.27 765.533C1619.27 768.648 1616.73 771.188 1613.62 771.188C1610.51 771.188 1607.97 768.648 1607.97 765.533C1607.97 762.419 1610.51 759.879 1613.62 759.879C1616.73 759.879 1619.27 762.419 1619.27 765.533Z" fill="#656EB2"/>
<path d="M1668.13 765.533C1668.13 768.648 1665.6 771.188 1662.48 771.188C1659.37 771.188 1656.83 768.648 1656.83 765.533C1656.83 762.419 1659.37 759.879 1662.48 759.879C1665.6 759.879 1668.13 762.419 1668.13 765.533Z" fill="#656EB2"/>
<path d="M1717.04 765.533C1717.04 768.648 1714.5 771.188 1711.38 771.188C1708.27 771.188 1705.73 768.648 1705.73 765.533C1705.73 762.419 1708.27 759.879 1711.38 759.879C1714.5 759.879 1717.04 762.419 1717.04 765.533Z" fill="#656EB2"/>
<path d="M1765.9 765.533C1765.9 768.648 1763.36 771.188 1760.24 771.188C1757.13 771.188 1754.59 768.648 1754.59 765.533C1754.59 762.419 1757.13 759.879 1760.24 759.879C1763.36 759.879 1765.9 762.419 1765.9 765.533Z" fill="#656EB2"/>
<path d="M1814.76 765.533C1814.76 768.648 1812.22 771.188 1809.1 771.188C1805.99 771.188 1803.45 768.648 1803.45 765.533C1803.45 762.419 1805.99 759.879 1809.1 759.879C1812.22 759.879 1814.76 762.419 1814.76 765.533Z" fill="#656EB2"/>
<path d="M1863.66 765.533C1863.66 768.648 1861.12 771.188 1858.01 771.188C1854.89 771.188 1852.35 768.648 1852.35 765.533C1852.35 762.419 1854.89 759.879 1858.01 759.879C1861.12 759.879 1863.66 762.419 1863.66 765.533Z" fill="#656EB2"/>
<path d="M1912.52 765.533C1912.52 768.648 1909.98 771.188 1906.87 771.188C1903.75 771.188 1901.21 768.648 1901.21 765.533C1901.21 762.419 1903.75 759.879 1906.87 759.879C1909.98 759.879 1912.52 762.419 1912.52 765.533Z" fill="#656EB2"/>
<path d="M1619.27 712.348C1619.27 715.462 1616.73 718.003 1613.62 718.003C1610.51 718.003 1607.97 715.462 1607.97 712.348C1607.97 709.234 1610.51 706.694 1613.62 706.694C1616.73 706.694 1619.27 709.234 1619.27 712.348Z" fill="#656EB2"/>
<path d="M1668.13 712.348C1668.13 715.462 1665.6 718.003 1662.48 718.003C1659.37 718.003 1656.83 715.462 1656.83 712.348C1656.83 709.234 1659.37 706.694 1662.48 706.694C1665.6 706.694 1668.13 709.234 1668.13 712.348Z" fill="#656EB2"/>
<path d="M1717.04 712.348C1717.04 715.462 1714.5 718.003 1711.38 718.003C1708.27 718.003 1705.73 715.462 1705.73 712.348C1705.73 709.234 1708.27 706.694 1711.38 706.694C1714.5 706.694 1717.04 709.234 1717.04 712.348Z" fill="#656EB2"/>
<path d="M1765.9 712.348C1765.9 715.462 1763.36 718.003 1760.24 718.003C1757.13 718.003 1754.59 715.462 1754.59 712.348C1754.59 709.234 1757.13 706.694 1760.24 706.694C1763.36 706.694 1765.9 709.234 1765.9 712.348Z" fill="#656EB2"/>
<path d="M1814.76 712.348C1814.76 715.462 1812.22 718.003 1809.1 718.003C1805.99 718.003 1803.45 715.462 1803.45 712.348C1803.45 709.234 1805.99 706.694 1809.1 706.694C1812.22 706.694 1814.76 709.234 1814.76 712.348Z" fill="#656EB2"/>
<path d="M1863.66 712.348C1863.66 715.462 1861.12 718.003 1858.01 718.003C1854.89 718.003 1852.35 715.462 1852.35 712.348C1852.35 709.234 1854.89 706.694 1858.01 706.694C1861.12 706.694 1863.66 709.234 1863.66 712.348Z" fill="#656EB2"/>
<path d="M1912.52 712.348C1912.52 715.462 1909.98 718.003 1906.87 718.003C1903.75 718.003 1901.21 715.462 1901.21 712.348C1901.21 709.234 1903.75 706.694 1906.87 706.694C1909.98 706.694 1912.52 709.234 1912.52 712.348Z" fill="#656EB2"/>
<path d="M1619.27 659.204C1619.27 662.318 1616.73 664.858 1613.62 664.858C1610.51 664.858 1607.97 662.318 1607.97 659.204C1607.97 656.09 1610.51 653.549 1613.62 653.549C1616.73 653.549 1619.27 656.09 1619.27 659.204Z" fill="#656EB2"/>
<path d="M1668.13 659.204C1668.13 662.318 1665.6 664.858 1662.48 664.858C1659.37 664.858 1656.83 662.318 1656.83 659.204C1656.83 656.09 1659.37 653.549 1662.48 653.549C1665.6 653.549 1668.13 656.09 1668.13 659.204Z" fill="#656EB2"/>
<path d="M1717.04 659.204C1717.04 662.318 1714.5 664.858 1711.38 664.858C1708.27 664.858 1705.73 662.318 1705.73 659.204C1705.73 656.09 1708.27 653.549 1711.38 653.549C1714.5 653.549 1717.04 656.09 1717.04 659.204Z" fill="#656EB2"/>
<path d="M1765.9 659.204C1765.9 662.318 1763.36 664.858 1760.24 664.858C1757.13 664.858 1754.59 662.318 1754.59 659.204C1754.59 656.09 1757.13 653.549 1760.24 653.549C1763.36 653.549 1765.9 656.09 1765.9 659.204Z" fill="#656EB2"/>
<path d="M1814.76 659.204C1814.76 662.318 1812.22 664.858 1809.1 664.858C1805.99 664.858 1803.45 662.318 1803.45 659.204C1803.45 656.09 1805.99 653.549 1809.1 653.549C1812.22 653.549 1814.76 656.09 1814.76 659.204Z" fill="#656EB2"/>
<path d="M1863.66 659.204C1863.66 662.318 1861.12 664.858 1858.01 664.858C1854.89 664.858 1852.35 662.318 1852.35 659.204C1852.35 656.09 1854.89 653.549 1858.01 653.549C1861.12 653.549 1863.66 656.09 1863.66 659.204Z" fill="#656EB2"/>
<path d="M1912.52 659.204C1912.52 662.318 1909.98 664.858 1906.87 664.858C1903.75 664.858 1901.21 662.318 1901.21 659.204C1901.21 656.09 1903.75 653.549 1906.87 653.549C1909.98 653.549 1912.52 656.09 1912.52 659.204Z" fill="#656EB2"/>
<path d="M1619.27 606.059C1619.27 609.173 1616.73 611.714 1613.62 611.714C1610.51 611.714 1607.97 609.173 1607.97 606.059C1607.97 602.945 1610.51 600.405 1613.62 600.405C1616.73 600.405 1619.27 602.945 1619.27 606.059Z" fill="#656EB2"/>
<path d="M1668.13 606.059C1668.13 609.173 1665.6 611.714 1662.48 611.714C1659.37 611.714 1656.83 609.173 1656.83 606.059C1656.83 602.945 1659.37 600.405 1662.48 600.405C1665.6 600.405 1668.13 602.945 1668.13 606.059Z" fill="#656EB2"/>
<path d="M1717.04 606.059C1717.04 609.173 1714.5 611.714 1711.38 611.714C1708.27 611.714 1705.73 609.173 1705.73 606.059C1705.73 602.945 1708.27 600.405 1711.38 600.405C1714.5 600.405 1717.04 602.945 1717.04 606.059Z" fill="#656EB2"/>
<path d="M1765.9 606.059C1765.9 609.173 1763.36 611.714 1760.24 611.714C1757.13 611.714 1754.59 609.173 1754.59 606.059C1754.59 602.945 1757.13 600.405 1760.24 600.405C1763.36 600.405 1765.9 602.945 1765.9 606.059Z" fill="#656EB2"/>
<path d="M1814.76 606.059C1814.76 609.173 1812.22 611.714 1809.1 611.714C1805.99 611.714 1803.45 609.173 1803.45 606.059C1803.45 602.945 1805.99 600.405 1809.1 600.405C1812.22 600.405 1814.76 602.945 1814.76 606.059Z" fill="#656EB2"/>
<path d="M1863.66 606.059C1863.66 609.173 1861.12 611.714 1858.01 611.714C1854.89 611.714 1852.35 609.173 1852.35 606.059C1852.35 602.945 1854.89 600.405 1858.01 600.405C1861.12 600.405 1863.66 602.945 1863.66 606.059Z" fill="#656EB2"/>
<path d="M1912.52 606.059C1912.52 609.173 1909.98 611.714 1906.87 611.714C1903.75 611.714 1901.21 609.173 1901.21 606.059C1901.21 602.945 1903.75 600.405 1906.87 600.405C1909.98 600.405 1912.52 602.945 1912.52 606.059Z" fill="#656EB2"/>
<path d="M1619.27 552.915C1619.27 556.029 1616.73 558.569 1613.62 558.569C1610.51 558.569 1607.97 556.029 1607.97 552.915C1607.97 549.801 1610.51 547.26 1613.62 547.26C1616.73 547.26 1619.27 549.801 1619.27 552.915Z" fill="#656EB2"/>
<path d="M1668.13 552.915C1668.13 556.029 1665.6 558.569 1662.48 558.569C1659.37 558.569 1656.83 556.029 1656.83 552.915C1656.83 549.801 1659.37 547.26 1662.48 547.26C1665.6 547.26 1668.13 549.801 1668.13 552.915Z" fill="#656EB2"/>
<path d="M1717.04 552.915C1717.04 556.029 1714.5 558.569 1711.38 558.569C1708.27 558.569 1705.73 556.029 1705.73 552.915C1705.73 549.801 1708.27 547.26 1711.38 547.26C1714.5 547.26 1717.04 549.801 1717.04 552.915Z" fill="#656EB2"/>
<path d="M1765.9 552.915C1765.9 556.029 1763.36 558.569 1760.24 558.569C1757.13 558.569 1754.59 556.029 1754.59 552.915C1754.59 549.801 1757.13 547.26 1760.24 547.26C1763.36 547.26 1765.9 549.801 1765.9 552.915Z" fill="#656EB2"/>
<path d="M1814.76 552.915C1814.76 556.029 1812.22 558.569 1809.1 558.569C1805.99 558.569 1803.45 556.029 1803.45 552.915C1803.45 549.801 1805.99 547.26 1809.1 547.26C1812.22 547.26 1814.76 549.801 1814.76 552.915Z" fill="#656EB2"/>
<path d="M1863.66 552.915C1863.66 556.029 1861.12 558.569 1858.01 558.569C1854.89 558.569 1852.35 556.029 1852.35 552.915C1852.35 549.801 1854.89 547.26 1858.01 547.26C1861.12 547.26 1863.66 549.801 1863.66 552.915Z" fill="#656EB2"/>
<path d="M1912.52 552.915C1912.52 556.029 1909.98 558.569 1906.87 558.569C1903.75 558.569 1901.21 556.029 1901.21 552.915C1901.21 549.801 1903.75 547.26 1906.87 547.26C1909.98 547.26 1912.52 549.801 1912.52 552.915Z" fill="#656EB2"/>
</svg>
