<svg width="1000" height="415" viewBox="0 0 1000 415" fill="none" xmlns="http://www.w3.org/2000/svg">
    <g clip-path="url(#clip0_51_472)">
        <path
            d="M317.506 151.03C317.506 50.3433 362.798 0 453.322 0C543.846 0 585.078 49.1623 585.078 147.516L585.545 301.794H511.987V146.571C511.987 92.3306 491.546 65.2249 450.635 65.2249C409.724 65.2249 390.393 91.4152 390.393 143.766V301.794H317.536V151.03H317.506Z"
            fill="white" />
        <path
            d="M269.12 150.764C269.12 251.451 223.653 301.794 132.749 301.794C44.532 301.794 0.43802 252.632 0.43802 154.278L0 0H74.0254L73.8502 155.223C73.8502 209.464 94.3787 236.569 135.465 236.569C176.551 236.569 195.941 210.379 195.941 158.028L195.532 0H269.12V150.764Z"
            fill="white" />
        <path
            d="M850.635 0.118164C950.212 0.118164 1000 60.855 1000 152.772C1000 241.973 951.38 301.322 854.11 301.322L755.41 301.765V227.091H855.015C908.658 227.091 935.465 191.57 935.465 150.026C935.465 109.25 909.563 74.1125 857.789 74.1125H753.891V0.118164H850.635Z"
            fill="white" />
        <path d="M705.359 0V301.794H633.611V0H705.359Z" fill="white" />
        <path
            d="M142.736 406.26C158.505 407.412 174.361 408.18 190.101 406.644C191.94 406.467 193.897 406.201 195.269 404.902C196.963 403.308 197.138 400.68 197.167 398.347C197.197 395.926 196.992 393.121 195.036 391.733C194.101 391.084 192.962 390.907 191.853 390.759C179.267 389.194 166.418 391.202 153.833 389.607C150.387 389.164 146.708 388.308 144.43 385.621C142.649 383.525 142.065 380.631 141.802 377.885C141.568 375.434 141.597 372.925 142.24 370.562C144.517 362.295 153.891 361.616 160.958 361.084C174.098 360.08 187.385 360.76 200.35 363.122C200.204 365.248 200.058 367.374 199.912 369.5C185.02 366.193 169.543 365.75 154.504 368.259C152.957 368.525 151.321 368.85 150.212 370.001C148.898 371.389 148.722 373.486 148.664 375.434C148.606 377.383 148.606 379.539 149.774 381.074C151.029 382.728 153.278 383.2 155.322 383.436C167.119 384.942 179.121 383.554 191.006 384.352C194.977 384.617 199.387 385.355 201.84 388.574C203.679 390.995 203.971 394.243 204.059 397.284C204.176 401.27 203.884 405.64 201.226 408.534C198.686 411.31 194.685 411.93 191.006 412.314C175.004 413.967 158.826 413.672 142.795 412.195C142.795 410.217 142.736 408.239 142.707 406.26H142.736Z"
            fill="white" stroke="white" stroke-miterlimit="10" />
        <path d="M340.166 360.848V366.99H308.804V413.258H301.971V366.99H270.434V360.848H340.166Z" fill="white"
            stroke="white" stroke-miterlimit="10" />
        <path
            d="M418.105 360.848V386.625C418.105 401.565 418.193 402.186 419.565 404.223C421.025 406.437 425.96 407.117 439.772 407.117C456.446 407.117 467.222 406.496 469.061 404.282C470.521 402.54 470.609 401.684 470.667 386.595V360.818H477.501V386.595C477.413 402.776 477.179 404.666 474.58 408.445C470.667 412.697 462.666 413.081 441.524 413.406C420.616 413.258 418.631 412.845 414.776 409.006C411.535 404.991 411.33 403.278 411.243 386.625V360.848H418.076H418.105Z"
            fill="white" stroke="white" stroke-miterlimit="10" />
        <path
            d="M554.271 360.848H595.415C611.242 360.848 615.155 361.704 619.01 365.867C622.397 369.558 623.478 374.666 623.478 387.009C623.478 398.642 621.872 405.227 618.017 408.918C614.338 412.461 610.395 413.229 595.97 413.229H554.3V360.818L554.271 360.848ZM595.649 407.117C605.49 407.117 605.869 407.117 608.702 406.408C614.25 405.079 616.469 399.41 616.469 386.684C616.469 378.594 615.389 373.013 613.403 370.415C611.797 368.436 609.49 367.521 605.11 367.108C603.504 366.96 601.577 366.96 595.269 366.96H561.133V407.117H595.649Z"
            fill="white" stroke="white" stroke-miterlimit="10" />
        <path d="M709.33 360.848V413.258H702.497V360.848H709.33Z" fill="white" stroke="white" stroke-miterlimit="10" />
        <path
            d="M854.168 364.923C856.242 366.96 857.176 369.47 857.789 374.755C858.11 377.59 858.315 382.934 858.315 387.245C858.315 400.119 857.234 406.024 854.402 409.154C851.394 412.461 842.897 413.406 827.157 413.406C819.477 413.406 805.198 413.081 802.277 412.786C797.138 412.313 794.598 411.28 792.291 408.77C789.224 405.552 788.436 401.004 788.436 386.861C788.436 372.718 789.662 367.226 793.429 364.243C795.97 362.265 798.511 361.586 805.052 361.173C808.205 360.936 820.003 360.7 824.938 360.7C842.459 360.7 850.898 361.556 854.197 364.952L854.168 364.923ZM798.043 369.558C796.204 371.3 795.415 376.231 795.415 386.3C795.415 397.934 795.941 402.481 797.576 404.282C798.89 405.788 800.876 406.319 806.19 406.644C809.023 406.88 820.616 407.116 824.295 407.116C831.742 407.116 841.787 406.733 845.233 406.083C848.24 405.522 849.846 403.868 850.46 400.739C850.927 397.904 851.307 392.264 851.307 387.392C851.307 381.487 850.985 375.227 850.547 372.865C850.08 369.883 848.24 368.318 844.795 367.757C840.882 367.137 833.99 366.96 820.908 366.96C807.826 366.96 800.029 367.669 798.043 369.558Z"
            fill="white" stroke="white" stroke-miterlimit="10" />
    </g>
    <defs>
        <clipPath id="clip0_51_472">
            <rect width="1000" height="414.912" fill="white" />
        </clipPath>
    </defs>
</svg>