<svg width="1000" height="409" viewBox="0 0 1000 409" fill="none" xmlns="http://www.w3.org/2000/svg">
    <path
        d="M317.801 150.768C317.801 50.2559 362.997 0 453.39 0C543.782 0 584.954 49.0768 584.954 147.26L585.42 301.27H511.97V146.317C511.97 92.1701 491.558 65.1115 450.707 65.1115C409.856 65.1115 390.552 91.2564 390.552 143.517V301.27H317.801V150.768Z"
        fill="white" />
    <path
        d="M269.485 150.502C269.485 251.014 224.085 301.27 133.314 301.27C45.2253 301.27 1.19554 252.193 1.19554 154.01L0.729004 0H74.6465L74.4715 154.953C74.4715 209.1 94.9702 236.158 135.997 236.158C177.023 236.158 196.384 210.013 196.384 157.753L195.976 0H269.456V150.502H269.485Z"
        fill="white" />
    <path
        d="M850.153 0.11792C949.584 0.11792 999.3 60.7492 999.3 152.507C999.3 241.552 950.751 300.798 853.623 300.798L755.066 301.24V226.697H854.527C908.091 226.697 934.859 191.238 934.859 149.765C934.859 109.06 908.995 73.9837 857.297 73.9837H753.55V0.11792H850.153Z"
        fill="white" />
    <path d="M705.088 0V301.27H633.445V0H705.088Z" fill="white" />
    <path
        d="M796.18 398.775C813.209 400.013 830.354 400.868 847.354 399.188C849.337 398.981 851.465 398.687 852.923 397.301C854.731 395.562 854.935 392.733 854.964 390.198C854.993 387.574 854.789 384.538 852.661 383.065C851.669 382.357 850.415 382.18 849.22 382.033C835.603 380.353 821.723 382.505 808.135 380.795C804.403 380.323 800.437 379.41 797.988 376.491C796.063 374.222 795.422 371.127 795.16 368.12C794.926 365.468 794.926 362.756 795.626 360.221C798.105 351.29 808.223 350.553 815.862 349.993C830.063 348.902 844.409 349.639 858.434 352.174C858.288 354.473 858.113 356.772 857.967 359.071C841.901 355.475 825.135 355.033 808.893 357.716C807.231 357.981 805.453 358.364 804.257 359.602C802.828 361.076 802.653 363.375 802.566 365.468C802.508 367.59 802.508 369.889 803.761 371.569C805.132 373.367 807.552 373.868 809.739 374.133C822.51 375.755 835.457 374.281 848.287 375.136C852.573 375.43 857.326 376.226 859.979 379.675C861.962 382.269 862.283 385.806 862.37 389.107C862.487 393.41 862.196 398.127 859.309 401.251C856.568 404.228 852.252 404.935 848.258 405.348C830.966 407.146 813.5 406.822 796.18 405.23C796.18 403.078 796.122 400.956 796.093 398.805L796.18 398.775Z"
        fill="white" stroke="white" stroke-width="1.08" stroke-miterlimit="10" />
    <path
        d="M9.15603 349.492V377.553C9.15603 393.794 9.2435 394.472 10.9639 396.712C12.7717 399.099 18.8367 399.866 35.8655 399.866C56.4224 399.866 62.5749 399.188 64.8493 396.8C66.6571 394.914 66.7446 393.97 66.8321 377.553V349.492H75.259V377.553C75.1715 395.179 74.8799 397.213 71.6724 401.339C66.8321 405.967 64.0912 406.38 38.0524 406.733C12.276 406.557 9.82668 406.144 5.10296 401.929C1.13736 397.566 0.845777 395.68 0.758301 377.553V349.492H9.18519H9.15603Z"
        fill="white" stroke="white" stroke-width="0.5" stroke-miterlimit="10" />
    <path
        d="M160.665 349.492L215.891 399.512H217.874V349.492H226.301V406.527H212.013L156.991 356.654H155.095V406.527H146.668V349.492H160.694H160.665Z"
        fill="white" stroke="white" stroke-width="0.5" stroke-miterlimit="10" />
    <path d="M306.692 349.492V406.527H298.265V349.492H306.692Z" fill="white" stroke="white" stroke-width="0.5"
        stroke-miterlimit="10" />
    <path
        d="M383.496 349.492L414.754 399.512H417.787L448.287 349.492H457.676L422.831 406.527H409.856L374.253 349.492H383.525H383.496Z"
        fill="white" stroke="white" stroke-width="0.5" stroke-miterlimit="10" />
    <path
        d="M525.324 349.492H587.17V356.153H533.751V373.603H584.896V380.264H533.751V399.836H587.257V406.498H525.324V349.462V349.492Z"
        fill="white" stroke="white" stroke-width="0.5" stroke-miterlimit="10" />
    <path
        d="M655.722 349.492H695.116C711.036 349.669 711.124 349.669 715.468 350.17C720.571 350.759 724.362 352.999 726.374 356.507C727.803 359.16 728.357 361.989 728.357 366.676C728.357 377.199 726.286 380.176 717.947 381.738C725.907 383.359 727.511 386.366 727.219 398.421V406.557H718.793V401.074C718.88 390.993 718.588 389.284 716.227 386.955C713.194 384.745 712.057 384.568 695.116 384.568H664.149V406.557H655.722V349.521V349.492ZM695.116 377.877C708.762 377.877 710.745 377.788 713.573 377.11C718.209 375.99 719.726 373.338 719.726 366.588C719.726 362.579 718.588 359.396 716.693 358.217C714.127 356.507 710.249 356.153 695.087 356.153H664.12V377.877H695.087H695.116Z"
        fill="white" stroke="white" stroke-width="0.5" stroke-miterlimit="10" />
    <path
        d="M937.338 349.492H999.184V356.153H945.765V373.603H996.909V380.264H945.765V399.836H999.271V406.498H937.338V349.462V349.492Z"
        fill="white" stroke="white" stroke-width="0.5" stroke-miterlimit="10" />
</svg>